<svg id="Layer_1" data-name="Layer 1" xmlns="http://www.w3.org/2000/svg" viewBox="0 0 334.39 967"><defs><style>.cls-1,.cls-2,.cls-3{fill:none;}.cls-1,.cls-2{stroke:#9e9e9e;stroke-width:10px;}.cls-1,.cls-2,.cls-3,.cls-4{stroke-miterlimit:10;}.cls-2{opacity:0.33;}.cls-3,.cls-4{stroke:#fff;}.cls-3{stroke-width:8px;}.cls-4{fill:#fff;stroke-width:4px;}</style></defs><title>sun-and-moon</title><path class="cls-1" d="M73.77,835.06A61.48,61.48,0,0,1,96.44,953.69a155.61,155.61,0,1,0-75.83-88A61.45,61.45,0,0,1,73.77,835.06Z" transform="translate(-0.77 -9.11)"/><path class="cls-1" d="M135.26,896.54A61.48,61.48,0,0,0,20.61,865.66a156.12,156.12,0,0,0,75.83,88A61.48,61.48,0,0,0,135.26,896.54Z" transform="translate(-0.77 -9.11)"/><path class="cls-2" d="M135.26,896.54A61.48,61.48,0,0,0,20.61,865.66a156.12,156.12,0,0,0,75.83,88A61.48,61.48,0,0,0,135.26,896.54Z" transform="translate(-0.77 -9.11)"/><circle class="cls-1" cx="237.84" cy="764.46" r="35.32"/><circle class="cls-1" cx="99.17" cy="730.44" r="35.32"/><circle class="cls-1" cx="219.52" cy="910.98" r="17.33"/><circle class="cls-3" cx="167.19" cy="167.19" r="69.06"/><rect class="cls-4" x="164.39" y="2" width="6.53" height="75.6" rx="2.67" ry="2.67"/><rect class="cls-4" x="292.09" y="138.97" width="6.53" height="75.6" rx="2.67" ry="2.67" transform="translate(471.36 -127.7) rotate(90)"/><rect class="cls-4" x="164.23" y="265.9" width="6.53" height="75.6" rx="2.67" ry="2.67" transform="translate(334.23 598.29) rotate(180)"/><rect class="cls-4" x="37.3" y="138.04" width="6.53" height="75.6" rx="2.67" ry="2.67" transform="translate(-136.04 207.3) rotate(-90)"/><rect class="cls-4" x="247.49" y="67.16" width="6.53" height="54.04" rx="2.67" ry="2.67" transform="translate(139.27 -158.84) rotate(45)"/><rect class="cls-4" x="246.83" y="232.08" width="6.53" height="54.04" rx="2.67" ry="2.67" transform="translate(609.37 256.35) rotate(135)"/><rect class="cls-4" x="81.91" y="231.42" width="6.53" height="54.04" rx="2.67" ry="2.67" transform="translate(-38.11 492.29) rotate(-135)"/><rect class="cls-4" x="82.57" y="66.5" width="6.53" height="54.04" rx="2.67" ry="2.67" transform="translate(-41.75 78.97) rotate(-45)"/></svg>