<svg id="Layer_1" data-name="Layer 1" xmlns="http://www.w3.org/2000/svg" viewBox="0 0 40 40"><defs><style>.cls-1{fill:#b3b3b3;}</style></defs><title>small</title><rect class="cls-1" width="5.42" height="5.62"/><rect class="cls-1" x="8.64" width="5.42" height="5.62"/><rect class="cls-1" x="17.29" width="5.42" height="5.62"/><rect class="cls-1" y="8.52" width="5.42" height="5.62"/><rect class="cls-1" x="8.64" y="8.52" width="5.42" height="5.62"/><rect class="cls-1" x="17.29" y="8.52" width="5.42" height="5.62"/><rect class="cls-1" y="17.05" width="5.42" height="5.62"/><rect class="cls-1" x="8.64" y="17.05" width="5.42" height="5.62"/><rect class="cls-1" x="17.29" y="17.05" width="5.42" height="5.62"/><rect class="cls-1" x="25.93" width="5.42" height="5.62"/><rect class="cls-1" x="34.58" width="5.42" height="5.62"/><rect class="cls-1" x="25.93" y="8.52" width="5.42" height="5.62"/><rect class="cls-1" x="34.58" y="8.52" width="5.42" height="5.62"/><rect class="cls-1" x="25.93" y="17.05" width="5.42" height="5.62"/><rect class="cls-1" x="34.58" y="17.05" width="5.42" height="5.62"/><rect class="cls-1" y="26.04" width="5.42" height="5.54"/><rect class="cls-1" x="8.64" y="26.04" width="5.42" height="5.54"/><rect class="cls-1" x="17.29" y="26.04" width="5.42" height="5.54"/><rect class="cls-1" y="34.46" width="5.42" height="5.54"/><rect class="cls-1" x="8.64" y="34.46" width="5.42" height="5.54"/><rect class="cls-1" x="17.29" y="34.46" width="5.42" height="5.54"/><rect class="cls-1" x="25.93" y="26.04" width="5.42" height="5.54"/><rect class="cls-1" x="34.58" y="26.04" width="5.42" height="5.54"/><rect class="cls-1" x="25.93" y="34.46" width="5.42" height="5.54"/><rect class="cls-1" x="34.58" y="34.46" width="5.42" height="5.54"/></svg>